<?xml version="1.0" standalone="no"?>
<!DOCTYPE svg PUBLIC "-//W3C//DTD SVG 20010904//EN"
 "http://www.w3.org/TR/2001/REC-SVG-20010904/DTD/svg10.dtd">
<svg version="1.0" xmlns="http://www.w3.org/2000/svg"
 width="512.000000pt" height="512.000000pt" viewBox="0 0 512.000000 512.000000"
 preserveAspectRatio="xMidYMid meet">
<metadata>
Created by potrace 1.11, written by Peter Selinger 2001-2013
</metadata>
<g transform="translate(0.000000,512.000000) scale(0.100000,-0.100000)"
fill="#000000" stroke="none">
<path d="M2457 4500 c-601 -58 -1136 -298 -1546 -695 -356 -344 -587 -772
-642 -1190 -15 -114 -6 -397 15 -481 24 -96 60 -169 145 -288 106 -152 184
-283 276 -466 159 -318 225 -379 394 -367 189 13 338 144 530 470 47 78 56 88
118 123 199 110 446 303 601 470 l84 89 -7 -275 c-3 -151 -12 -318 -20 -370
-15 -109 -7 -183 25 -234 40 -66 119 -72 150 -11 13 26 15 98 13 499 l-3 469
268 -264 c319 -317 514 -497 557 -515 67 -28 206 -27 398 2 l42 7 -30 -33
c-47 -51 -192 -171 -280 -232 -238 -166 -529 -299 -892 -408 -76 -23 -107 -37
-122 -57 -40 -50 -18 -117 43 -128 36 -7 283 25 435 56 342 70 673 198 908
351 308 200 530 460 663 773 102 241 143 465 143 775 -1 475 -101 839 -311
1135 -70 97 -240 276 -342 358 -277 223 -625 368 -1030 427 -98 14 -471 21
-583 10z m423 -221 c478 -43 838 -218 1084 -529 169 -212 280 -499 320 -825
64 -525 -18 -907 -274 -1266 -76 -107 -105 -136 -122 -121 -7 6 -78 38 -158
72 -310 131 -434 210 -895 575 l-139 110 44 8 c25 4 249 9 498 10 434 2 455 3
468 22 35 47 -2 94 -116 153 -90 47 -134 52 -196 26 -22 -9 -55 -21 -74 -25
-35 -9 -595 -49 -679 -49 l-44 0 8 82 c4 51 16 105 31 140 20 47 22 62 13 82
-13 27 -105 77 -182 97 -41 12 -49 11 -63 -3 -15 -15 -15 -20 0 -65 23 -65 43
-332 27 -343 -13 -7 -291 -24 -297 -17 -2 2 25 65 60 139 94 198 204 446 331
750 112 266 112 268 131 247 18 -21 24 -21 149 -13 72 4 150 8 175 8 44 1 45
1 52 -39 4 -22 7 -90 7 -151 l1 -112 -52 -6 c-29 -3 -141 -11 -248 -16 -107
-6 -201 -13 -207 -15 -22 -7 -14 -38 22 -87 41 -56 33 -55 240 -33 77 8 164
15 194 15 l54 0 -7 -92 c-21 -292 -21 -302 4 -346 45 -80 122 -79 146 3 8 25
13 117 13 246 l1 206 143 6 c78 4 188 7 245 7 158 0 203 37 130 108 -62 59
-155 79 -229 48 -19 -7 -68 -16 -109 -20 -41 -4 -99 -9 -127 -12 l-53 -6 1 43
c0 24 4 64 9 89 4 25 11 61 15 81 6 29 3 40 -19 66 l-26 31 33 5 c17 3 104 9
192 12 182 8 230 17 246 47 23 43 -38 107 -123 128 -44 11 -54 10 -120 -14
-61 -23 -105 -29 -307 -46 -328 -26 -421 -31 -421 -26 0 3 14 45 30 94 32 97
36 135 19 197 -17 61 -75 172 -130 248 -27 37 -49 69 -49 71 0 17 173 20 330
5z m-496 -174 c-1 -98 -13 -169 -50 -285 l-24 -76 -37 -1 c-21 -1 -65 -11 -97
-22 -56 -20 -294 -44 -648 -67 -60 -3 -108 -9 -108 -13 0 -12 56 -95 74 -110
13 -11 39 -12 134 -5 64 4 144 8 176 8 74 1 74 3 75 -190 l1 -141 -67 -6 c-38
-4 -157 -12 -266 -18 -157 -10 -200 -16 -205 -27 -6 -18 22 -73 55 -104 l24
-22 197 17 c108 10 212 21 231 24 l34 6 -7 -129 c-15 -272 -16 -275 -88 -425
l-65 -136 -99 -6 c-55 -4 -130 -7 -167 -7 -82 0 -92 -13 -53 -69 64 -91 95
-106 194 -88 l43 7 -57 -107 c-169 -318 -355 -625 -400 -657 -15 -11 -49 -21
-75 -24 -67 -6 -126 25 -194 102 -155 176 -260 385 -311 621 -26 119 -24 340
4 472 70 327 224 628 461 901 339 392 739 626 1206 705 l80 14 15 -26 c9 -18
14 -55 14 -116z m-144 -539 c0 -2 -31 -79 -69 -172 -64 -156 -71 -169 -96
-172 l-28 -4 7 89 c3 48 9 110 12 136 6 45 4 50 -30 82 l-36 34 67 4 c123 6
173 7 173 3z m23 -1300 c-38 -68 -369 -399 -414 -415 -6 -2 11 39 39 90 27 52
75 144 107 204 32 61 59 112 62 115 2 2 38 7 81 11 132 11 134 11 125 -5z"/>
</g>
</svg>
